<?xml version="1.0" encoding="iso-8859-1"?>
<!-- Generator: Adobe Illustrator 19.0.0, SVG Export Plug-In . SVG Version: 6.00 Build 0)  -->
<svg version="1.1" id="Layer_1" xmlns="http://www.w3.org/2000/svg" xmlns:xlink="http://www.w3.org/1999/xlink" x="0px" y="0px"
	 viewBox="0 0 497.492 497.492" style="enable-background:new 0 0 497.492 497.492;" xml:space="preserve">
<path id="SVGCleanerId_0" style="fill:#FA7B7A;" d="M241.47,427.648c2.48,2.72,4.904,5.32,7.32,7.832
	c2.384-2.504,4.832-5.104,7.304-7.824L241.47,427.648z"/>
<path id="SVGCleanerId_1" style="fill:#FA7B7A;" d="M241.014,369.208l7.864,6.032l7.6-6.384c-2.568-3.08-4.848-6.04-7.744-10.096
	C246.27,362.176,243.702,365.64,241.014,369.208z"/>
<path id="SVGCleanerId_2" style="fill:#FA7B7A;" d="M276.406,405.52c1.76-2.272,3.424-4.472,5.096-6.68
	c-1.816-1.952-3.64-3.952-5.536-6.088L276.406,405.52z"/>
<path style="fill:#FA7B7A;" d="M457.022,315.336c-0.152-0.36-0.152-0.36-0.32-0.736c-0.792-1.72-0.792-1.72-1.536-3.456
	c-34.208-75.888-70.16-151.136-107.88-225.712c-0.952-1.872-1.712-3.384-3.408-6.696c-0.024-0.08-0.024-0.08-0.072-0.152
	c-6.168-12.184-9-17.696-12.688-24.472c-6.792-12.328-13.696-21.952-22.04-29.832c-14.68-14.248-34.56-22.952-55.192-24.264
	L244.91,0c-21.688,1.072-42.224,10.136-57.328,25.112c-7.904,7.64-14.528,16.976-21.152,28.992
	c-3.72,6.784-6.768,12.688-12.6,24.216c-0.344,0.672-0.344,0.672-0.68,1.36c-1.336,2.624-1.912,3.776-2.672,5.256
	c-25.096,49.592-49.576,99.88-73.504,150.872c-17.488,37.464-29.832,64.44-41.728,91.376c-7.328,16.712-11.48,29.208-13.312,42.488
	c-3.832,25.592,1.656,52.592,15.224,74.816c11.68,19.256,29.184,34.728,49.568,43.672c15.888,7,33.4,10.152,50.64,9.12
	c21.784-1.176,43.664-8.824,63.928-21.608c16.192-10.136,30.968-22.872,47.488-40.168c-2.416-2.512-4.84-5.12-7.32-7.832
	l14.624,0.016c-2.48,2.72-4.92,5.312-7.304,7.824c14.936,15.704,28.52,27.672,43.232,37.448
	c20.04,13.432,41.52,21.848,63.208,23.936c25.216,2.68,51.256-3.744,72.328-17.968c18.528-12.448,33.176-30.792,41.416-51.832
	c5.344-13.624,8-28.296,7.752-42.912c-0.152-14.296-3.256-28.872-8.872-43.448C465.054,333.472,462.606,327.776,457.022,315.336z
	 M248.886,375.24l-7.864-6.032c2.688-3.56,5.256-7.032,7.728-10.448c-1.792-2.48-3.792-5.368-6.24-8.952
	c-0.424-0.616-0.424-0.616-0.84-1.232c-0.256-0.36-0.256-0.36-0.52-0.728c-8.872-13.264-16.064-25.968-21.688-38.664
	c-5.376-12.232-8.736-23.296-10.088-33.984c-1.152-9.904-0.496-18.424,2.184-25.536c2.568-7.064,7.448-13.168,13.632-17.184
	c15.504-10.192,37.616-8.872,51.248,3.136c6.528,5.656,10.816,14.328,11.888,23.808c1.368,12.136-0.912,25.336-6.368,40.184
	c-7.216,19.304-17.904,37.96-33.208,59.168c2.888,4.056,5.168,7.016,7.744,10.096L248.886,375.24z M424.742,404.816v0.024
	c0,15.296-14.528,28.712-28.168,36.4c-12.024,6.84-26.384,9.312-40.248,6.952c-16.496-2.608-32.632-11.144-49.536-25
	c-8.28-6.768-16.232-14.528-25.328-24.352c-1.672,2.208-3.32,4.408-5.08,6.68l-0.432-12.768c1.896,2.136,3.728,4.136,5.536,6.088
	c16.288-21.504,28.432-40.336,37.992-59.896c11.816-24.264,18.48-46.896,19.16-69.384c0.488-16.896-2.832-33.16-10.032-47.144
	c-9.712-19.248-27.168-34.408-47.744-41.776c-18.608-6.776-39.368-7.424-58.496-1.856c-18.416,5.304-34.872,16.552-46.104,31.8
	c-9.8,13.152-15.672,29.48-17.024,46.528c-1.792,21.312,2.624,43.472,12.136,66.928c10.328,25.128,25.088,49.224,44.704,74.704
	c1.808-1.984,3.6-3.992,5.312-6.032l-0.176,12.64c-1.76-2.2-3.432-4.408-5.136-6.608c-6.712,7.416-13.928,14.528-21.72,21.328
	c-16.832,14.512-32.808,23.744-49.2,27.344c-14.44,3.304-29.632,1.544-42.264-4.96c-15.08-7.64-26.672-22.096-31.032-38.616
	c-3.28-11.952-2.72-25.2,1.416-37.608c2.424-7.264,4.904-13.128,10.672-26.016c0.24-0.528,0.24-0.528,0.488-1.088
	c1.048-2.352,1.736-3.88,2.432-5.464c33.472-74.312,68.904-148.488,106.232-222.432c0.808-1.568,1.432-2.832,2.856-5.648
	c0.072-0.144,0.072-0.144,0.152-0.28c6.664-13.216,9.76-19.232,13.704-26.48c5.288-9.568,9.928-15.808,15.56-20.152
	c6.728-5.36,15.176-8.24,23.504-8.048c8.904-0.104,17.616,3.136,24.344,8.896c6.016,5.08,10.624,11.784,16.776,23.472
	c8.832,16.904,16.512,32.168,30.608,60.496c1.24,2.536,1.24,2.536,2.512,5.072c0.144,0.272,0.144,0.272,0.272,0.56
	c31.568,63.656,61.752,127.56,90.496,191.704c0.384,0.896,0.704,1.592,1.432,3.248c0.272,0.624,0.272,0.624,0.544,1.224
	c5.408,12.256,7.28,17.824,9.2,24.72C428.23,381.488,424.742,393.728,424.742,404.816z"/>
<path style="fill:#DD4B4B;" d="M242.502,349.808c-0.424-0.616-0.424-0.616-0.84-1.232c-0.256-0.36-0.256-0.36-0.52-0.728
	c-8.872-13.264-16.064-25.968-21.688-38.664c-5.376-12.232-8.736-23.296-10.088-33.984c-1.152-9.904-0.496-18.424,2.184-25.536
	c2.568-7.064,7.448-13.168,13.632-17.184c15.504-10.192,37.616-8.872,51.248,3.136c6.528,5.656,10.816,14.328,11.888,23.808
	c1.192,10.648-0.576,22.192-4.656,34.888c24.128-75.104,5.432-112.744-22.68-118.424c-12.864-1.664-26.088-0.744-38.608,2.904
	c-18.416,5.304-34.872,16.552-46.104,31.8c-9.8,13.152-15.672,29.48-17.024,46.528c-1.792,21.312,2.624,43.472,12.136,66.928
	c10.296,25.008,24.976,49.008,44.448,74.344c10.688-11.104,21.632-24.48,32.696-39.92
	C246.798,356.04,244.862,353.256,242.502,349.808z"/>
<polygon style="fill:#FA7B7A;" points="476.726,384.12 476.726,384.152 476.726,384.192 "/>
<path id="SVGCleanerId_3" style="fill:#FA7B7A;" d="M221.398,392.712c-1.712,2.04-3.504,4.048-5.312,6.032
	c1.704,2.2,3.376,4.408,5.136,6.608L221.398,392.712z"/>
<g>
	<path id="SVGCleanerId_0_1_" style="fill:#FA7B7A;" d="M241.47,427.648c2.48,2.72,4.904,5.32,7.32,7.832
		c2.384-2.504,4.832-5.104,7.304-7.824L241.47,427.648z"/>
</g>
<g>
	<path id="SVGCleanerId_1_1_" style="fill:#FA7B7A;" d="M241.014,369.208l7.864,6.032l7.6-6.384
		c-2.568-3.08-4.848-6.04-7.744-10.096C246.27,362.176,243.702,365.64,241.014,369.208z"/>
</g>
<g>
	<path id="SVGCleanerId_2_1_" style="fill:#FA7B7A;" d="M276.406,405.52c1.76-2.272,3.424-4.472,5.096-6.68
		c-1.816-1.952-3.64-3.952-5.536-6.088L276.406,405.52z"/>
</g>
<polygon style="fill:#FA7B7A;" points="476.726,384.12 476.726,384.152 476.726,384.192 "/>
<g>
	<path id="SVGCleanerId_3_1_" style="fill:#FA7B7A;" d="M221.398,392.712c-1.712,2.04-3.504,4.048-5.312,6.032
		c1.704,2.2,3.376,4.408,5.136,6.608L221.398,392.712z"/>
</g>
<path style="fill:#BA3A3A;" d="M279.574,305.216c7.952-16.168,12.88-38.584,12.88-63.352c0-49.368-19.56-63.472-43.704-63.472
	c-24.16,0-43.736,14.104-43.736,63.472c0,23.896,4.616,45.552,12.096,61.592c-3.976-9.984-6.616-19.28-7.76-28.256
	c-1.152-9.904-0.496-18.424,2.184-25.536c2.568-7.064,7.448-13.168,13.632-17.184c15.504-10.192,37.616-8.872,51.248,3.136
	c6.528,5.656,10.816,14.328,11.888,23.808c1.368,12.136-0.912,25.336-6.368,40.184C281.238,301.488,280.35,303.344,279.574,305.216z
	"/>
<path style="fill:#DD4B4B;" d="M473.87,410.672c1.968-8.704,3.016-17.6,2.856-26.52c-0.152-14.296-3.256-28.872-8.872-43.448
	c-2.8-7.232-5.24-12.928-10.832-25.368c-0.152-0.36-0.152-0.36-0.32-0.736c-0.792-1.72-0.792-1.72-1.536-3.456
	c-34.208-75.888-70.16-151.136-107.88-225.712c-0.952-1.872-1.712-3.384-3.408-6.696c-0.024-0.08-0.024-0.08-0.072-0.152
	c-6.168-12.184-9-17.696-12.688-24.472c-6.792-12.328-13.696-21.952-22.04-29.832c-7.296-7.072-15.856-12.768-25.168-16.88
	c-2.784,0.176-9.4-2.688-12.552-1.48c-21.92,8.424-44.208,33.032-68.296,85.688c2.52-4.896,4.504-8.672,6.752-12.8
	c5.288-9.568,9.928-15.808,15.56-20.152c6.728-5.36,15.176-8.24,23.504-8.048c8.904-0.104,17.616,3.136,24.344,8.896
	c6.016,5.08,10.624,11.784,16.776,23.472c8.832,16.904,16.512,32.168,30.608,60.496c1.24,2.536,1.24,2.536,2.512,5.072
	c0.144,0.272,0.144,0.272,0.272,0.56c31.568,63.656,61.752,127.56,90.496,191.704c0.384,0.896,0.704,1.592,1.432,3.248
	c0.272,0.624,0.272,0.624,0.544,1.224c5.408,12.256,7.28,17.824,9.2,24.72c3.168,11.488-0.32,23.728-0.32,34.816v0.024
	c0,15.296-14.528,28.712-28.168,36.4c-12.024,6.84-26.384,9.312-40.248,6.952c-5.168-0.824-10.24-2.296-15.4-4.256
	c20.528,9.32,42.04,13.064,63.448,9.616C431.846,449.136,455.542,433.68,473.87,410.672z"/>
<path style="fill:#BA3A3A;" d="M345.022,80.976c-0.336-0.664-0.704-1.376-1.152-2.232c-0.024-0.08-0.024-0.08-0.072-0.152
	c-6.168-12.184-9-17.696-12.688-24.472c-6.792-12.328-13.696-21.952-22.04-29.832c-7.296-7.072-15.856-12.768-25.168-16.88
	c-2.784,0.176-9.4-2.688-12.552-1.48c-21.92,8.424-44.208,33.032-68.296,85.688c2.52-4.896,4.504-8.672,6.752-12.8
	c5.288-9.568,9.928-15.808,15.56-20.152c6.728-5.36,15.176-8.24,23.504-8.048c8.904-0.104,17.616,3.136,24.344,8.896
	c6.016,5.08,10.624,11.784,16.776,23.472c8.832,16.904,16.512,32.168,30.608,60.496c1.24,2.536,1.24,2.536,2.512,5.072
	c0.144,0.272,0.144,0.272,0.272,0.56c9.08,18.312,18.008,36.624,26.856,54.976c0.824-12.384,1.256-25.072,1.256-38
	C351.518,136.112,349.206,107.432,345.022,80.976z"/>
<path style="fill:#DD4B4B;" d="M35.246,327.184c-7.328,16.712-11.48,29.208-13.312,42.488c-2.048,13.704-1.352,27.792,1.744,41.352
	C52.27,455.64,78.23,453.04,112.846,453.04c15.256,0,29.832-3.272,43.44-8.968c-3.696,1.384-7.4,2.528-11.12,3.352
	c-14.44,3.304-29.632,1.544-42.264-4.96c-15.08-7.64-26.672-22.096-31.032-38.616c-3.28-11.952-2.72-25.2,1.416-37.608
	c2.424-7.264,4.904-13.128,10.672-26.016c0.24-0.528,0.24-0.528,0.488-1.088c1.048-2.352,1.736-3.88,2.432-5.464
	c25.528-56.68,52.216-113.264,80.008-169.76"/>
<path style="fill:#BA3A3A;" d="M102.902,442.456c-15.08-7.64-26.672-22.096-31.032-38.616c-3.28-11.952-2.72-25.2,1.416-37.608
	c0.824-2.448,1.656-4.752,2.608-7.192c-11.808,22-26.488,35.056-42.4,35.056c-4.28,0-8.464-0.992-12.528-2.808
	c0.344,6.624,1.256,13.24,2.72,19.736c28.592,44.616,51.312,48.168,85.912,48.168c15.256,0,36.92-4.384,46.688-15.128
	c-3.696,1.384-7.4,2.528-11.12,3.352C130.726,450.72,115.534,448.96,102.902,442.456z"/>
<g>
	<path style="fill:#DD4B4B;" d="M306.878,423.192c-8.216-6.728-16.168-14.44-25.184-24.16c-1.536,1.896,0,0,0,0c-0.2,0.256,0,0,0,0
		l0,0c-3.168,4.488-14.792,15.448-18.896,20c-5.248,5.832-9.584,11.352-14.776,16.584c11.792,12.4,23.232,22.408,34.592,30.904
		c6.568-3.704,12.824-8.248,17.912-13.904c6.168-6.824,10.752-14.832,13.952-23.48C311.91,427.264,309.47,425.312,306.878,423.192z"
		/>
	<path style="fill:#DD4B4B;" d="M239.062,445.256c-8.128,7.688-15.96,14.496-23.216,20.2
		C223.566,459.592,231.19,452.92,239.062,445.256z"/>
	<path style="fill:#DD4B4B;" d="M212.414,468.096c0.68-0.496,1.376-1.024,2.064-1.544
		C213.766,467.104,213.094,467.576,212.414,468.096z"/>
</g>
<path style="fill:#BA3A3A;" d="M457.022,315.336c-0.152-0.36-0.152-0.36-0.32-0.736c-0.792-1.72-0.792-1.72-1.536-3.456
	c-10.872-24.104-21.976-48.12-33.192-72.096c2.736,22.256,26.592,69.192,24.776,109.944c-2.376,53.568-23.296,78.712-46.208,89.928
	c-1.176,0.808-2.376,1.592-3.624,2.304c-12.024,6.84-26.544,9.312-40.416,6.952c-2.808-0.44-5.608-1.112-8.424-1.912
	c-0.808-0.12-1.576-0.24-2.304-0.368c19.08,7.824,38.872,10.824,58.648,7.64c27.472-4.416,51.128-19.864,69.456-42.872
	c1.968-8.704,3.016-17.6,2.856-26.52c-0.152-14.296-3.256-28.872-8.872-43.448C465.054,333.472,462.606,327.776,457.022,315.336z"/>
<g>
</g>
<g>
</g>
<g>
</g>
<g>
</g>
<g>
</g>
<g>
</g>
<g>
</g>
<g>
</g>
<g>
</g>
<g>
</g>
<g>
</g>
<g>
</g>
<g>
</g>
<g>
</g>
<g>
</g>
</svg>
