<?xml version="1.0" encoding="utf-8"?>
<!-- Generator: Adobe Illustrator 24.2.0, SVG Export Plug-In . SVG Version: 6.00 Build 0)  -->
<svg version="1.1" id="Layer_1" xmlns="http://www.w3.org/2000/svg" xmlns:xlink="http://www.w3.org/1999/xlink" x="0px" y="0px"
	 viewBox="0 0 349.8 349.4" style="enable-background:new 0 0 349.8 349.4;" xml:space="preserve">
<style type="text/css">
	.st0{fill:#007BFF;}
</style>
<g id="Layer_2_1_">
	<g id="Layer_1-2">
		<path class="st0" d="M165.5,349.4l16.8,0c96.5-4.1,171.3-85.7,167.2-182.2C345.7,76.6,273,3.9,182.3,0l-16.6,0
			c-0.1,0-0.1,0.1-0.2,0.1C69.1,5.3-4.9,87.7,0.3,184.2C5.2,273.3,76.4,344.6,165.5,349.4L165.5,349.4z M59.9,287.8
			c11.2-8.1,23.2-15,35.8-20.6c12,25.1,29,47.6,49.8,66.1C113,327.3,83.1,311.4,59.9,287.8z M168.1,334.5
			c-25.4-19-45.9-43.8-59.8-72.3c19.2-7,39.4-11,59.8-11.9V334.5z M168.1,236.8c-22.3,0.9-44.4,5.3-65.3,13c-8-20-12.7-41.1-14-62.5
			h79.3L168.1,236.8z M168.1,173.7l-79.7,0.1c0.1-22,3.7-43.9,10.9-64.7c22,8.7,45.2,13.6,68.8,14.6V173.7z M202,333.8
			c21.8-19.2,39.3-42.7,51.5-69c13.6,5.5,26.5,12.5,38.5,20.9C268,311,236.4,327.9,202,333.8z M300.9,275.5
			c-13.1-9.3-27.3-17.1-42.2-23.1c8.1-20.9,12.8-42.9,14-65.2h63.1C333.4,219.5,321.2,250.2,300.9,275.5L300.9,275.5z M305.9,80.7
			c19.6,27,30.2,59.5,30.3,92.9H273c-0.1-22.9-3.8-45.6-11-67.3C277.6,99.6,292.4,91,305.9,80.7L305.9,80.7z M297.6,70.1
			c-12.5,9.4-26,17.3-40.3,23.6c-12.2-29.9-31.2-56.5-55.3-78C239.3,22,273.1,41.2,297.6,70.1L297.6,70.1z M181.6,16.4
			c27.9,21.3,49.7,49.7,63.1,82.2c-20.3,7.3-41.6,11.2-63.1,11.6V16.4z M181.6,123.8c23.1-0.4,46-4.7,67.7-12.5
			c6.6,20.1,10,41.1,10.1,62.3l-77.9,0.1L181.6,123.8z M181.6,187.2h77.4c-1.2,20.7-5.6,41.1-13.1,60.4
			c-20.8-6.9-42.4-10.6-64.3-11.1L181.6,187.2z M181.6,250.1c20.1,0.4,39.9,3.8,59,10c-13.6,28.7-33.8,53.6-59,72.9V250.1z
			 M168.1,15v95.1c-21.9-1-43.6-5.6-64-13.7C117.9,64.1,140,36,168.1,15z M145.5,16.1C122.3,36.8,104,62.4,91.8,91
			c-13.3-6.3-25.9-14.1-37.5-23.3C78.1,40.8,110.2,22.7,145.5,16.1L145.5,16.1z M45.7,78.2c12.7,10,26.5,18.5,41.1,25.4
			C79,126.2,75,149.9,74.9,173.7H13.5C13.7,139.3,24.9,105.7,45.7,78.2z M14,187.3h61.3c1.3,23.2,6.3,46,15,67.6
			c-13.9,6.2-27.2,13.8-39.5,22.9C29.4,252.2,16.5,220.6,14,187.3z"/>
	</g>
</g>
</svg>
